<svg width="231" height="250" viewBox="0 0 231 250" fill="none" xmlns="http://www.w3.org/2000/svg">
<g clip-path="url(#clip0_167_29)">
<path d="M147.86 147.87C150.69 134.47 153.93 121.13 156.24 107.64C158.95 91.78 161.63 75.94 164.93 60.19C165.96 55.29 168.09 53.01 173.26 53.05C190.27 53.21 207.29 53.05 224.3 53.11C230.66 53.14 231.75 54.81 230.37 61.26C225.73 83.02 220.32 104.65 216.72 126.58C210.68 163.37 201.35 199.45 194.6 236.07C194.47 236.78 194.37 237.5 194.2 238.2C192.02 247.23 191.83 247.29 182.62 247.39C167.08 247.56 151.57 248.78 136 248.59C130.4 248.52 127.22 246.33 125.04 241.62C119.8 230.29 115 218.73 109.14 207.74C100.63 191.79 92.9601 175.44 84.6501 159.4C84.2401 158.61 83.8701 157.76 81.9801 157.59C80.6201 164.12 78.6901 170.69 77.9701 177.39C76.6801 189.47 73.9301 201.25 71.3901 213.06C69.1801 223.3 68.0801 233.78 64.6901 243.79C63.5601 247.12 61.8301 248.41 58.4701 248.47C41.3001 248.76 24.1301 249.23 6.96006 249.5C-0.0599432 249.61 -0.859943 248.53 0.660057 241.42C6.79006 212.78 12.9801 184.14 19.1501 155.51C19.3801 154.45 19.8201 153.36 19.7401 152.32C18.2101 133.08 30.8301 122.97 44.2701 112.77C63.4101 98.24 81.9801 82.94 100.69 67.84C105.18 64.21 109.27 60.09 113.59 56.24C118.6 51.77 119.55 51.99 121.46 58.25C129.56 84.68 136.82 111.35 143.52 138.16C144.34 141.44 145.31 144.68 146.21 147.94C146.76 147.92 147.31 147.89 147.86 147.87Z" fill="#0CF839"/>
<path d="M27.2799 111.45C29.4299 100.53 31.5299 89.53 33.7599 78.55C36.0699 67.22 38.5699 55.94 40.8399 44.61C41.5899 40.85 43.4599 38.54 47.1899 37.38C77.0499 28.16 106.89 18.87 136.73 9.55002C145.7 6.75002 154.61 3.75002 163.57 0.920018C165.2 0.410018 167.41 -0.929982 168.5 1.05002C169.76 3.33002 167.29 4.53002 165.83 5.70002C143.95 23.16 121.63 40.1 100.22 58.12C78.1099 76.73 55.2999 94.47 33.0399 112.87C31.6799 113.99 30.3999 115.66 28.3499 114.87C26.8899 114.3 27.2899 112.76 27.2799 111.45Z" fill="#FF9D00"/>
</g>
<defs>
<clipPath id="clip0_167_29">
<rect width="230.9" height="249.51" fill="white"/>
</clipPath>
</defs>
</svg>
