<svg width="133" height="43" viewBox="0 0 133 43" fill="none" xmlns="http://www.w3.org/2000/svg">
<g filter="url(#filter0_d_1353_3)">
<rect x="2.5" y="0.5" width="124" height="31" rx="15.5" stroke="url(#paint0_linear_1353_3)" shape-rendering="crispEdges"/>
<path d="M26.5 16.2963C27.4946 16.2963 28.4484 15.9217 29.1517 15.2549C29.8549 14.5881 30.25 13.6837 30.25 12.7407C30.25 11.7977 29.8549 10.8934 29.1517 10.2266C28.4484 9.55979 27.4946 9.18519 26.5 9.18519C25.5054 9.18519 24.5516 9.55979 23.8483 10.2266C23.1451 10.8934 22.75 11.7977 22.75 12.7407C22.75 13.6837 23.1451 14.5881 23.8483 15.2549C24.5516 15.9217 25.5054 16.2963 26.5 16.2963ZM26.5 17.4815C25.1739 17.4815 23.9021 16.982 22.9645 16.093C22.0268 15.2039 21.5 13.9981 21.5 12.7407C21.5 11.4834 22.0268 10.2776 22.9645 9.38853C23.9021 8.49947 25.1739 8 26.5 8C27.8261 8 29.0979 8.49947 30.0355 9.38853C30.9732 10.2776 31.5 11.4834 31.5 12.7407C31.5 13.9981 30.9732 15.2039 30.0355 16.093C29.0979 16.982 27.8261 17.4815 26.5 17.4815ZM32.75 23.4074V21.6296C32.75 21.1581 32.5525 20.7059 32.2008 20.3726C31.8492 20.0392 31.3723 19.8519 30.875 19.8519H22.125C21.6277 19.8519 21.1508 20.0392 20.7992 20.3726C20.4475 20.7059 20.25 21.1581 20.25 21.6296V23.4074C20.25 23.5646 20.1842 23.7153 20.0669 23.8264C19.9497 23.9376 19.7908 24 19.625 24C19.4592 24 19.3003 23.9376 19.1831 23.8264C19.0658 23.7153 19 23.5646 19 23.4074V21.6296C19 20.8438 19.3292 20.0902 19.9153 19.5345C20.5013 18.9788 21.2962 18.6667 22.125 18.6667H30.875C31.7038 18.6667 32.4987 18.9788 33.0847 19.5345C33.6708 20.0902 34 20.8438 34 21.6296V23.4074C34 23.5646 33.9342 23.7153 33.8169 23.8264C33.6997 23.9376 33.5408 24 33.375 24C33.2092 24 33.0503 23.9376 32.9331 23.8264C32.8158 23.7153 32.75 23.5646 32.75 23.4074Z" fill="black"/>
<path d="M46.8074 22V11.28L47.3194 11.824H44.1674V10.8H47.9594V22H46.8074ZM55.8162 22V10.8H60.0082C60.9575 10.8 61.7735 10.9547 62.4562 11.264C63.1389 11.5627 63.6615 12 64.0242 12.576C64.3975 13.1413 64.5842 13.8293 64.5842 14.64C64.5842 15.4293 64.3975 16.112 64.0242 16.688C63.6615 17.2533 63.1389 17.6907 62.4562 18C61.7735 18.3093 60.9575 18.464 60.0082 18.464H56.4722L57.0002 17.904V22H55.8162ZM57.0002 18L56.4722 17.424H59.9762C61.0962 17.424 61.9442 17.184 62.5202 16.704C63.1069 16.2133 63.4002 15.5253 63.4002 14.64C63.4002 13.744 63.1069 13.0507 62.5202 12.56C61.9442 12.0693 61.0962 11.824 59.9762 11.824H56.4722L57.0002 11.264V18ZM70.4254 22.08C69.5508 22.08 68.7828 21.8987 68.1214 21.536C67.4601 21.1627 66.9428 20.656 66.5694 20.016C66.1961 19.3653 66.0094 18.624 66.0094 17.792C66.0094 16.96 66.1854 16.224 66.5374 15.584C66.9001 14.944 67.3908 14.4427 68.0094 14.08C68.6388 13.7067 69.3428 13.52 70.1214 13.52C70.9108 13.52 71.6094 13.7013 72.2174 14.064C72.8361 14.416 73.3214 14.9173 73.6734 15.568C74.0254 16.208 74.2014 16.9493 74.2014 17.792C74.2014 17.8453 74.1961 17.904 74.1854 17.968C74.1854 18.0213 74.1854 18.08 74.1854 18.144H66.8734V17.296H73.5774L73.1294 17.632C73.1294 17.024 72.9961 16.4853 72.7294 16.016C72.4734 15.536 72.1214 15.1627 71.6734 14.896C71.2254 14.6293 70.7081 14.496 70.1214 14.496C69.5454 14.496 69.0281 14.6293 68.5694 14.896C68.1108 15.1627 67.7534 15.536 67.4974 16.016C67.2414 16.496 67.1134 17.0453 67.1134 17.664V17.84C67.1134 18.48 67.2521 19.0453 67.5294 19.536C67.8174 20.016 68.2121 20.3947 68.7134 20.672C69.2254 20.9387 69.8068 21.072 70.4574 21.072C70.9694 21.072 71.4441 20.9813 71.8814 20.8C72.3294 20.6187 72.7134 20.3413 73.0334 19.968L73.6734 20.704C73.3001 21.152 72.8308 21.4933 72.2654 21.728C71.7108 21.9627 71.0974 22.08 70.4254 22.08ZM76.5137 22V13.6H77.6017V15.888L77.4897 15.488C77.7244 14.848 78.119 14.3627 78.6737 14.032C79.2284 13.6907 79.9164 13.52 80.7377 13.52V14.624C80.695 14.624 80.6524 14.624 80.6097 14.624C80.567 14.6133 80.5244 14.608 80.4817 14.608C79.5964 14.608 78.903 14.88 78.4017 15.424C77.9004 15.9573 77.6497 16.72 77.6497 17.712V22H76.5137ZM85.1603 22.08C84.467 22.08 83.811 21.984 83.1923 21.792C82.5736 21.5893 82.0883 21.3387 81.7363 21.04L82.2483 20.144C82.5896 20.4 83.027 20.624 83.5603 20.816C84.0936 20.9973 84.6536 21.088 85.2403 21.088C86.0403 21.088 86.6163 20.9653 86.9683 20.72C87.3203 20.464 87.4963 20.128 87.4963 19.712C87.4963 19.4027 87.395 19.1627 87.1923 18.992C87.0003 18.8107 86.7443 18.6773 86.4243 18.592C86.1043 18.496 85.747 18.416 85.3523 18.352C84.9576 18.288 84.563 18.2133 84.1683 18.128C83.7843 18.0427 83.4323 17.92 83.1123 17.76C82.7923 17.5893 82.531 17.36 82.3283 17.072C82.1363 16.784 82.0403 16.4 82.0403 15.92C82.0403 15.4613 82.1683 15.0507 82.4243 14.688C82.6803 14.3253 83.0536 14.0427 83.5443 13.84C84.0456 13.6267 84.6536 13.52 85.3683 13.52C85.9123 13.52 86.4563 13.5947 87.0003 13.744C87.5443 13.8827 87.9923 14.0693 88.3443 14.304L87.8483 15.216C87.475 14.96 87.075 14.7787 86.6483 14.672C86.2216 14.5547 85.795 14.496 85.3683 14.496C84.611 14.496 84.051 14.6293 83.6883 14.896C83.3363 15.152 83.1603 15.4827 83.1603 15.888C83.1603 16.208 83.2563 16.4587 83.4483 16.64C83.651 16.8213 83.9123 16.9653 84.2323 17.072C84.563 17.168 84.9203 17.248 85.3043 17.312C85.699 17.376 86.0883 17.456 86.4723 17.552C86.867 17.6373 87.2243 17.76 87.5443 17.92C87.875 18.0693 88.1363 18.288 88.3283 18.576C88.531 18.8533 88.6323 19.2213 88.6323 19.68C88.6323 20.1707 88.4936 20.5973 88.2163 20.96C87.9496 21.312 87.555 21.5893 87.0323 21.792C86.5203 21.984 85.8963 22.08 85.1603 22.08ZM94.1408 22.08C93.3301 22.08 92.5995 21.8987 91.9488 21.536C91.3088 21.1627 90.8021 20.656 90.4288 20.016C90.0555 19.3653 89.8688 18.624 89.8688 17.792C89.8688 16.9493 90.0555 16.208 90.4288 15.568C90.8021 14.928 91.3088 14.4267 91.9488 14.064C92.5888 13.7013 93.3195 13.52 94.1408 13.52C94.9728 13.52 95.7088 13.7013 96.3488 14.064C96.9995 14.4267 97.5061 14.928 97.8688 15.568C98.2421 16.208 98.4288 16.9493 98.4288 17.792C98.4288 18.624 98.2421 19.3653 97.8688 20.016C97.5061 20.656 96.9995 21.1627 96.3488 21.536C95.6981 21.8987 94.9621 22.08 94.1408 22.08ZM94.1408 21.072C94.7488 21.072 95.2875 20.9387 95.7568 20.672C96.2261 20.3947 96.5941 20.0107 96.8608 19.52C97.1381 19.0187 97.2768 18.4427 97.2768 17.792C97.2768 17.1307 97.1381 16.5547 96.8608 16.064C96.5941 15.5733 96.2261 15.1947 95.7568 14.928C95.2875 14.6507 94.7541 14.512 94.1568 14.512C93.5595 14.512 93.0261 14.6507 92.5568 14.928C92.0875 15.1947 91.7141 15.5733 91.4368 16.064C91.1595 16.5547 91.0208 17.1307 91.0208 17.792C91.0208 18.4427 91.1595 19.0187 91.4368 19.52C91.7141 20.0107 92.0875 20.3947 92.5568 20.672C93.0261 20.9387 93.5541 21.072 94.1408 21.072ZM105.036 13.52C105.719 13.52 106.316 13.6533 106.828 13.92C107.351 14.176 107.756 14.5707 108.044 15.104C108.343 15.6373 108.492 16.3093 108.492 17.12V22H107.356V17.232C107.356 16.3467 107.132 15.68 106.684 15.232C106.247 14.7733 105.628 14.544 104.828 14.544C104.231 14.544 103.708 14.6667 103.26 14.912C102.823 15.1467 102.481 15.4933 102.236 15.952C102.001 16.4 101.884 16.944 101.884 17.584V22H100.748V13.6H101.836V15.904L101.66 15.472C101.927 14.864 102.353 14.3893 102.94 14.048C103.527 13.696 104.225 13.52 105.036 13.52Z" fill="black"/>
</g>
<defs>
<filter id="filter0_d_1353_3" x="0" y="0" width="133" height="43" filterUnits="userSpaceOnUse" color-interpolation-filters="sRGB">
<feFlood flood-opacity="0" result="BackgroundImageFix"/>
<feColorMatrix in="SourceAlpha" type="matrix" values="0 0 0 0 0 0 0 0 0 0 0 0 0 0 0 0 0 0 127 0" result="hardAlpha"/>
<feOffset dx="2" dy="7"/>
<feGaussianBlur stdDeviation="2"/>
<feComposite in2="hardAlpha" operator="out"/>
<feColorMatrix type="matrix" values="0 0 0 0 0 0 0 0 0 0 0 0 0 0 0 0 0 0 0.25 0"/>
<feBlend mode="normal" in2="BackgroundImageFix" result="effect1_dropShadow_1353_3"/>
<feBlend mode="normal" in="SourceGraphic" in2="effect1_dropShadow_1353_3" result="shape"/>
</filter>
<linearGradient id="paint0_linear_1353_3" x1="2" y1="0" x2="128.694" y2="9.56527" gradientUnits="userSpaceOnUse">
<stop offset="0.5" stop-color="#0CF637"/>
<stop offset="1" stop-color="#950DFF"/>
</linearGradient>
</defs>
</svg>
