<svg width="136" height="43" viewBox="0 0 136 43" fill="none" xmlns="http://www.w3.org/2000/svg">
<g filter="url(#filter0_d_1353_17)">
<rect x="2.5" y="0.5" width="127" height="31" rx="15.5" stroke="url(#paint0_linear_1353_17)" shape-rendering="crispEdges"/>
<g clip-path="url(#clip0_1353_17)">
<path d="M15.5526 15.3105C14.1679 15.3105 12.9613 16.1664 12.3302 17.4318C11.7352 16.8021 10.9329 16.4161 10.0502 16.4161H8.32339C6.48852 16.4161 5.00098 18.0843 5.00098 20.1415V23.997H5.68125V20.1415C5.68125 18.4937 6.85366 17.1788 8.32339 17.1788H10.0502C10.847 17.1788 11.5565 17.5653 12.0392 18.1818C11.925 18.5807 11.8631 19.0059 11.8631 19.4473V23.997H12.6186V19.4473C12.6186 17.6175 13.9206 16.1577 15.5526 16.1577H17.4699C19.1019 16.1577 20.4042 17.6175 20.4042 19.4473V23.997H21.1594V19.4473C21.1594 18.9978 21.0952 18.5652 20.977 18.16C21.4592 17.5562 22.1615 17.1788 22.9489 17.1788H24.6754C26.1451 17.1788 27.3178 18.4937 27.3178 20.1415V23.997H27.9981V20.1415C27.9981 18.0843 26.5102 16.4161 24.6754 16.4161H22.9489C22.0738 16.4161 21.2776 16.7955 20.6842 17.4155C20.0509 16.1591 18.8487 15.3105 17.4699 15.3105H15.5526Z" fill="black"/>
<path d="M16.4999 8.00391C14.9 8.00391 13.5957 9.4666 13.5957 11.2604C13.5957 13.0542 14.9 14.5169 16.4999 14.5169C18.0999 14.5169 19.4044 13.0542 19.4044 11.2604C19.4044 9.4666 18.0999 8.00391 16.4999 8.00391ZM16.4999 8.78489C17.7235 8.78489 18.7082 9.88852 18.7082 11.2604C18.7082 12.6323 17.7235 13.7359 16.4999 13.7359C15.2763 13.7359 14.292 12.6323 14.292 11.2604C14.292 9.88852 15.2763 8.78489 16.4999 8.78489Z" fill="black"/>
<path d="M23.8006 10.1162C22.4213 10.1162 21.2969 11.3769 21.2969 12.9233C21.2969 14.4698 22.4213 15.7308 23.8006 15.7308C25.1799 15.7308 26.3043 14.4698 26.3043 12.9233C26.3043 11.3769 25.1799 10.1162 23.8006 10.1162ZM23.8006 10.7892C24.8554 10.7892 25.704 11.7407 25.704 12.9233C25.704 14.106 24.8554 15.0578 23.8006 15.0578C22.7458 15.0578 21.8971 14.106 21.8971 12.9233C21.8971 11.7407 22.7458 10.7892 23.8006 10.7892Z" fill="black"/>
<path d="M9.17541 10.1162C7.79616 10.1162 6.67139 11.3769 6.67139 12.9233C6.67139 14.4698 7.79616 15.7308 9.17541 15.7308C10.5547 15.7308 11.6791 14.4698 11.6791 12.9233C11.6791 11.3769 10.5547 10.1162 9.17541 10.1162ZM9.17541 10.7892C10.2302 10.7892 11.0788 11.7407 11.0788 12.9233C11.0788 14.106 10.2302 15.0578 9.17541 15.0578C8.1206 15.0578 7.27198 14.106 7.27198 12.9233C7.27198 11.7407 8.1206 10.7892 9.17541 10.7892Z" fill="black"/>
</g>
<path d="M42.2229 22.096C41.4122 22.096 40.6442 21.968 39.9189 21.712C39.2042 21.4453 38.6282 21.0933 38.1909 20.656L38.7509 19.744C39.1135 20.1173 39.5989 20.4267 40.2069 20.672C40.8255 20.9173 41.4975 21.04 42.2229 21.04C43.1509 21.04 43.8602 20.8373 44.3509 20.432C44.8522 20.0267 45.1029 19.4827 45.1029 18.8C45.1029 18.1173 44.8575 17.5733 44.3669 17.168C43.8869 16.7627 43.1242 16.56 42.0789 16.56H41.2789V15.712L44.7349 11.376L44.8949 11.824H38.6549V10.8H45.8549V11.616L42.3989 15.952L41.8389 15.584H42.2709C43.6149 15.584 44.6175 15.8827 45.2789 16.48C45.9509 17.0773 46.2869 17.8453 46.2869 18.784C46.2869 19.4133 46.1375 19.9787 45.8389 20.48C45.5402 20.9813 45.0869 21.376 44.4789 21.664C43.8815 21.952 43.1295 22.096 42.2229 22.096ZM52.3741 22.096C51.5101 22.096 50.7421 21.872 50.0701 21.424C49.3981 20.9653 48.8701 20.3147 48.4861 19.472C48.1021 18.6187 47.9101 17.5947 47.9101 16.4C47.9101 15.2053 48.1021 14.1867 48.4861 13.344C48.8701 12.4907 49.3981 11.84 50.0701 11.392C50.7421 10.9333 51.5101 10.704 52.3741 10.704C53.2381 10.704 54.0061 10.9333 54.6781 11.392C55.3501 11.84 55.8781 12.4907 56.2621 13.344C56.6568 14.1867 56.8541 15.2053 56.8541 16.4C56.8541 17.5947 56.6568 18.6187 56.2621 19.472C55.8781 20.3147 55.3501 20.9653 54.6781 21.424C54.0061 21.872 53.2381 22.096 52.3741 22.096ZM52.3741 21.04C53.0355 21.04 53.6115 20.864 54.1021 20.512C54.5928 20.1493 54.9768 19.6267 55.2541 18.944C55.5315 18.2507 55.6701 17.4027 55.6701 16.4C55.6701 15.3973 55.5315 14.5547 55.2541 13.872C54.9768 13.1787 54.5928 12.656 54.1021 12.304C53.6115 11.9413 53.0355 11.76 52.3741 11.76C51.7341 11.76 51.1635 11.9413 50.6621 12.304C50.1608 12.656 49.7715 13.1787 49.4941 13.872C49.2168 14.5547 49.0781 15.3973 49.0781 16.4C49.0781 17.4027 49.2168 18.2507 49.4941 18.944C49.7715 19.6267 50.1608 20.1493 50.6621 20.512C51.1635 20.864 51.7341 21.04 52.3741 21.04ZM61.8929 19.792V13.008H62.9009V19.792H61.8929ZM58.9169 16.88V15.936H65.8769V16.88H58.9169ZM73.0115 22V10.8H77.2035C78.1528 10.8 78.9688 10.9547 79.6515 11.264C80.3342 11.5627 80.8568 12 81.2195 12.576C81.5928 13.1413 81.7795 13.8293 81.7795 14.64C81.7795 15.4293 81.5928 16.112 81.2195 16.688C80.8568 17.2533 80.3342 17.6907 79.6515 18C78.9688 18.3093 78.1528 18.464 77.2035 18.464H73.6675L74.1955 17.904V22H73.0115ZM74.1955 18L73.6675 17.424H77.1715C78.2915 17.424 79.1395 17.184 79.7155 16.704C80.3022 16.2133 80.5955 15.5253 80.5955 14.64C80.5955 13.744 80.3022 13.0507 79.7155 12.56C79.1395 12.0693 78.2915 11.824 77.1715 11.824H73.6675L74.1955 11.264V18ZM87.6208 22.08C86.7461 22.08 85.9781 21.8987 85.3168 21.536C84.6554 21.1627 84.1381 20.656 83.7648 20.016C83.3914 19.3653 83.2048 18.624 83.2048 17.792C83.2048 16.96 83.3808 16.224 83.7328 15.584C84.0954 14.944 84.5861 14.4427 85.2048 14.08C85.8341 13.7067 86.5381 13.52 87.3168 13.52C88.1061 13.52 88.8048 13.7013 89.4128 14.064C90.0314 14.416 90.5168 14.9173 90.8688 15.568C91.2208 16.208 91.3968 16.9493 91.3968 17.792C91.3968 17.8453 91.3914 17.904 91.3808 17.968C91.3808 18.0213 91.3808 18.08 91.3808 18.144H84.0688V17.296H90.7728L90.3248 17.632C90.3248 17.024 90.1914 16.4853 89.9248 16.016C89.6688 15.536 89.3168 15.1627 88.8688 14.896C88.4208 14.6293 87.9034 14.496 87.3168 14.496C86.7408 14.496 86.2234 14.6293 85.7648 14.896C85.3061 15.1627 84.9488 15.536 84.6928 16.016C84.4368 16.496 84.3088 17.0453 84.3088 17.664V17.84C84.3088 18.48 84.4474 19.0453 84.7248 19.536C85.0128 20.016 85.4074 20.3947 85.9088 20.672C86.4208 20.9387 87.0021 21.072 87.6528 21.072C88.1648 21.072 88.6394 20.9813 89.0768 20.8C89.5248 20.6187 89.9088 20.3413 90.2288 19.968L90.8688 20.704C90.4954 21.152 90.0261 21.4933 89.4608 21.728C88.9061 21.9627 88.2928 22.08 87.6208 22.08ZM97.133 22.08C96.3223 22.08 95.5917 21.8987 94.941 21.536C94.301 21.1627 93.7943 20.656 93.421 20.016C93.0477 19.3653 92.861 18.624 92.861 17.792C92.861 16.9493 93.0477 16.208 93.421 15.568C93.7943 14.928 94.301 14.4267 94.941 14.064C95.581 13.7013 96.3117 13.52 97.133 13.52C97.965 13.52 98.701 13.7013 99.341 14.064C99.9917 14.4267 100.498 14.928 100.861 15.568C101.234 16.208 101.421 16.9493 101.421 17.792C101.421 18.624 101.234 19.3653 100.861 20.016C100.498 20.656 99.9917 21.1627 99.341 21.536C98.6903 21.8987 97.9543 22.08 97.133 22.08ZM97.133 21.072C97.741 21.072 98.2797 20.9387 98.749 20.672C99.2183 20.3947 99.5863 20.0107 99.853 19.52C100.13 19.0187 100.269 18.4427 100.269 17.792C100.269 17.1307 100.13 16.5547 99.853 16.064C99.5863 15.5733 99.2183 15.1947 98.749 14.928C98.2797 14.6507 97.7463 14.512 97.149 14.512C96.5517 14.512 96.0183 14.6507 95.549 14.928C95.0797 15.1947 94.7063 15.5733 94.429 16.064C94.1517 16.5547 94.013 17.1307 94.013 17.792C94.013 18.4427 94.1517 19.0187 94.429 19.52C94.7063 20.0107 95.0797 20.3947 95.549 20.672C96.0183 20.9387 96.5463 21.072 97.133 21.072ZM108.076 22.08C107.351 22.08 106.695 21.9147 106.108 21.584C105.522 21.2427 105.052 20.7573 104.7 20.128C104.359 19.488 104.188 18.7093 104.188 17.792C104.188 16.8747 104.359 16.1013 104.7 15.472C105.042 14.832 105.506 14.3467 106.092 14.016C106.679 13.6853 107.34 13.52 108.076 13.52C108.876 13.52 109.591 13.7013 110.22 14.064C110.86 14.416 111.362 14.9173 111.724 15.568C112.087 16.208 112.268 16.9493 112.268 17.792C112.268 18.6453 112.087 19.392 111.724 20.032C111.362 20.672 110.86 21.1733 110.22 21.536C109.591 21.8987 108.876 22.08 108.076 22.08ZM103.74 25.104V13.6H104.828V16.128L104.716 17.808L104.876 19.504V25.104H103.74ZM107.996 21.072C108.594 21.072 109.127 20.9387 109.596 20.672C110.066 20.3947 110.439 20.0107 110.716 19.52C110.994 19.0187 111.132 18.4427 111.132 17.792C111.132 17.1413 110.994 16.5707 110.716 16.08C110.439 15.5893 110.066 15.2053 109.596 14.928C109.127 14.6507 108.594 14.512 107.996 14.512C107.399 14.512 106.86 14.6507 106.38 14.928C105.911 15.2053 105.538 15.5893 105.26 16.08C104.994 16.5707 104.86 17.1413 104.86 17.792C104.86 18.4427 104.994 19.0187 105.26 19.52C105.538 20.0107 105.911 20.3947 106.38 20.672C106.86 20.9387 107.399 21.072 107.996 21.072ZM114.584 22V10.128H115.72V22H114.584ZM122.449 22.08C121.574 22.08 120.806 21.8987 120.145 21.536C119.484 21.1627 118.966 20.656 118.593 20.016C118.22 19.3653 118.033 18.624 118.033 17.792C118.033 16.96 118.209 16.224 118.561 15.584C118.924 14.944 119.414 14.4427 120.033 14.08C120.662 13.7067 121.366 13.52 122.145 13.52C122.934 13.52 123.633 13.7013 124.241 14.064C124.86 14.416 125.345 14.9173 125.697 15.568C126.049 16.208 126.225 16.9493 126.225 17.792C126.225 17.8453 126.22 17.904 126.209 17.968C126.209 18.0213 126.209 18.08 126.209 18.144H118.897V17.296H125.601L125.153 17.632C125.153 17.024 125.02 16.4853 124.753 16.016C124.497 15.536 124.145 15.1627 123.697 14.896C123.249 14.6293 122.732 14.496 122.145 14.496C121.569 14.496 121.052 14.6293 120.593 14.896C120.134 15.1627 119.777 15.536 119.521 16.016C119.265 16.496 119.137 17.0453 119.137 17.664V17.84C119.137 18.48 119.276 19.0453 119.553 19.536C119.841 20.016 120.236 20.3947 120.737 20.672C121.249 20.9387 121.83 21.072 122.481 21.072C122.993 21.072 123.468 20.9813 123.905 20.8C124.353 20.6187 124.737 20.3413 125.057 19.968L125.697 20.704C125.324 21.152 124.854 21.4933 124.289 21.728C123.734 21.9627 123.121 22.08 122.449 22.08Z" fill="black"/>
</g>
<defs>
<filter id="filter0_d_1353_17" x="0" y="0" width="136" height="43" filterUnits="userSpaceOnUse" color-interpolation-filters="sRGB">
<feFlood flood-opacity="0" result="BackgroundImageFix"/>
<feColorMatrix in="SourceAlpha" type="matrix" values="0 0 0 0 0 0 0 0 0 0 0 0 0 0 0 0 0 0 127 0" result="hardAlpha"/>
<feOffset dx="2" dy="7"/>
<feGaussianBlur stdDeviation="2"/>
<feComposite in2="hardAlpha" operator="out"/>
<feColorMatrix type="matrix" values="0 0 0 0 0 0 0 0 0 0 0 0 0 0 0 0 0 0 0.25 0"/>
<feBlend mode="normal" in2="BackgroundImageFix" result="effect1_dropShadow_1353_17"/>
<feBlend mode="normal" in="SourceGraphic" in2="effect1_dropShadow_1353_17" result="shape"/>
</filter>
<linearGradient id="paint0_linear_1353_17" x1="2" y1="0" x2="131.699" y2="10.0272" gradientUnits="userSpaceOnUse">
<stop offset="0.5" stop-color="#0CF637"/>
<stop offset="1" stop-color="#950DFF"/>
</linearGradient>
<clipPath id="clip0_1353_17">
<rect width="23" height="16" fill="white" transform="translate(5 8)"/>
</clipPath>
</defs>
</svg>
