<svg width="136" height="43" viewBox="0 0 136 43" fill="none" xmlns="http://www.w3.org/2000/svg">
<g filter="url(#filter0_d_1353_7)">
<rect x="2.5" y="0.5" width="127" height="31" rx="15.5" stroke="url(#paint0_linear_1353_7)" shape-rendering="crispEdges"/>
<path d="M29.5 24H28.2143V21.1429C28.2133 20.3854 27.8743 19.6592 27.2717 19.1236C26.6691 18.5879 25.8522 18.2866 25 18.2857V17.1429C26.193 17.1444 27.3366 17.5663 28.1801 18.3161C29.0236 19.0659 29.4983 20.0825 29.5 21.1429V24ZM24.3571 24H23.0714V21.1429C23.0704 20.3854 22.7314 19.6592 22.1289 19.1236C21.5263 18.5879 20.7093 18.2866 19.8571 18.2857H16C15.1478 18.2866 14.3309 18.5879 13.7283 19.1236C13.1257 19.6592 12.7867 20.3854 12.7857 21.1429V24H11.5V21.1429C11.5017 20.0825 11.9764 19.0659 12.8199 18.3161C13.6634 17.5663 14.807 17.1444 16 17.1429H19.8571C21.0501 17.1444 22.1937 17.5663 23.0372 18.3161C23.8808 19.0659 24.3554 20.0825 24.3571 21.1429V24ZM23.0714 8V9.14286C23.9239 9.14286 24.7415 9.44388 25.3443 9.97969C25.9471 10.5155 26.2857 11.2422 26.2857 12C26.2857 12.7578 25.9471 13.4845 25.3443 14.0203C24.7415 14.5561 23.9239 14.8571 23.0714 14.8571V16C24.2649 16 25.4095 15.5786 26.2534 14.8284C27.0973 14.0783 27.5714 13.0609 27.5714 12C27.5714 10.9391 27.0973 9.92172 26.2534 9.17157C25.4095 8.42143 24.2649 8 23.0714 8ZM17.9286 9.14286C18.5643 9.14286 19.1857 9.31043 19.7143 9.62437C20.2429 9.93832 20.6549 10.3845 20.8982 10.9066C21.1415 11.4287 21.2051 12.0032 21.0811 12.5574C20.9571 13.1116 20.6509 13.6207 20.2014 14.0203C19.7519 14.4199 19.1792 14.692 18.5556 14.8022C17.9321 14.9125 17.2859 14.8559 16.6985 14.6397C16.1112 14.4234 15.6092 14.0572 15.256 13.5873C14.9028 13.1175 14.7143 12.5651 14.7143 12C14.7143 11.2422 15.0529 10.5155 15.6557 9.97969C16.2585 9.44388 17.0761 9.14286 17.9286 9.14286ZM17.9286 8C17.0386 8 16.1685 8.2346 15.4285 8.67412C14.6885 9.11365 14.1117 9.73836 13.7711 10.4693C13.4305 11.2002 13.3414 12.0044 13.515 12.7804C13.6887 13.5563 14.1173 14.269 14.7466 14.8284C15.3759 15.3878 16.1778 15.7688 17.0507 15.9231C17.9236 16.0775 18.8284 15.9983 19.6506 15.6955C20.4729 15.3928 21.1757 14.8801 21.6702 14.2223C22.1647 13.5645 22.4286 12.7911 22.4286 12C22.4286 10.9391 21.9545 9.92172 21.1106 9.17157C20.2666 8.42143 19.122 8 17.9286 8Z" fill="black"/>
<path d="M42.409 22V11.28L42.921 11.824H39.769V10.8H43.561V22H42.409ZM46.3663 18.16V17.168H50.5583V18.16H46.3663ZM51.9521 22V21.184L56.6081 16.624C57.0348 16.208 57.3548 15.8453 57.5681 15.536C57.7815 15.216 57.9255 14.9173 58.0001 14.64C58.0748 14.3627 58.1121 14.1013 58.1121 13.856C58.1121 13.2053 57.8881 12.6933 57.4401 12.32C57.0028 11.9467 56.3521 11.76 55.4881 11.76C54.8268 11.76 54.2401 11.8613 53.7281 12.064C53.2268 12.2667 52.7948 12.5813 52.4321 13.008L51.6161 12.304C52.0535 11.792 52.6135 11.3973 53.2961 11.12C53.9788 10.8427 54.7415 10.704 55.5841 10.704C56.3415 10.704 56.9975 10.8267 57.5521 11.072C58.1068 11.3067 58.5335 11.6533 58.8321 12.112C59.1415 12.5707 59.2961 13.1093 59.2961 13.728C59.2961 14.0907 59.2428 14.448 59.1361 14.8C59.0401 15.152 58.8588 15.5253 58.5921 15.92C58.3361 16.304 57.9575 16.7413 57.4561 17.232L53.1841 21.424L52.8641 20.976H59.8081V22H51.9521ZM66.4334 22V10.8H70.6254C71.5747 10.8 72.3907 10.9547 73.0734 11.264C73.756 11.5627 74.2787 12 74.6414 12.576C75.0147 13.1413 75.2014 13.8293 75.2014 14.64C75.2014 15.4293 75.0147 16.112 74.6414 16.688C74.2787 17.2533 73.756 17.6907 73.0734 18C72.3907 18.3093 71.5747 18.464 70.6254 18.464H67.0894L67.6174 17.904V22H66.4334ZM67.6174 18L67.0894 17.424H70.5934C71.7134 17.424 72.5614 17.184 73.1374 16.704C73.724 16.2133 74.0174 15.5253 74.0174 14.64C74.0174 13.744 73.724 13.0507 73.1374 12.56C72.5614 12.0693 71.7134 11.824 70.5934 11.824H67.0894L67.6174 11.264V18ZM81.0426 22.08C80.168 22.08 79.4 21.8987 78.7386 21.536C78.0773 21.1627 77.56 20.656 77.1866 20.016C76.8133 19.3653 76.6266 18.624 76.6266 17.792C76.6266 16.96 76.8026 16.224 77.1546 15.584C77.5173 14.944 78.008 14.4427 78.6266 14.08C79.256 13.7067 79.96 13.52 80.7386 13.52C81.528 13.52 82.2266 13.7013 82.8346 14.064C83.4533 14.416 83.9386 14.9173 84.2906 15.568C84.6426 16.208 84.8186 16.9493 84.8186 17.792C84.8186 17.8453 84.8133 17.904 84.8026 17.968C84.8026 18.0213 84.8026 18.08 84.8026 18.144H77.4906V17.296H84.1946L83.7466 17.632C83.7466 17.024 83.6133 16.4853 83.3466 16.016C83.0906 15.536 82.7386 15.1627 82.2906 14.896C81.8426 14.6293 81.3253 14.496 80.7386 14.496C80.1626 14.496 79.6453 14.6293 79.1866 14.896C78.728 15.1627 78.3706 15.536 78.1146 16.016C77.8586 16.496 77.7306 17.0453 77.7306 17.664V17.84C77.7306 18.48 77.8693 19.0453 78.1466 19.536C78.4346 20.016 78.8293 20.3947 79.3306 20.672C79.8426 20.9387 80.424 21.072 81.0746 21.072C81.5866 21.072 82.0613 20.9813 82.4986 20.8C82.9466 20.6187 83.3306 20.3413 83.6506 19.968L84.2906 20.704C83.9173 21.152 83.448 21.4933 82.8826 21.728C82.328 21.9627 81.7146 22.08 81.0426 22.08ZM90.5549 22.08C89.7442 22.08 89.0135 21.8987 88.3629 21.536C87.7229 21.1627 87.2162 20.656 86.8429 20.016C86.4695 19.3653 86.2829 18.624 86.2829 17.792C86.2829 16.9493 86.4695 16.208 86.8429 15.568C87.2162 14.928 87.7229 14.4267 88.3629 14.064C89.0029 13.7013 89.7335 13.52 90.5549 13.52C91.3869 13.52 92.1229 13.7013 92.7629 14.064C93.4135 14.4267 93.9202 14.928 94.2829 15.568C94.6562 16.208 94.8429 16.9493 94.8429 17.792C94.8429 18.624 94.6562 19.3653 94.2829 20.016C93.9202 20.656 93.4135 21.1627 92.7629 21.536C92.1122 21.8987 91.3762 22.08 90.5549 22.08ZM90.5549 21.072C91.1629 21.072 91.7015 20.9387 92.1709 20.672C92.6402 20.3947 93.0082 20.0107 93.2749 19.52C93.5522 19.0187 93.6909 18.4427 93.6909 17.792C93.6909 17.1307 93.5522 16.5547 93.2749 16.064C93.0082 15.5733 92.6402 15.1947 92.1709 14.928C91.7015 14.6507 91.1682 14.512 90.5709 14.512C89.9735 14.512 89.4402 14.6507 88.9709 14.928C88.5015 15.1947 88.1282 15.5733 87.8509 16.064C87.5735 16.5547 87.4349 17.1307 87.4349 17.792C87.4349 18.4427 87.5735 19.0187 87.8509 19.52C88.1282 20.0107 88.5015 20.3947 88.9709 20.672C89.4402 20.9387 89.9682 21.072 90.5549 21.072ZM101.498 22.08C100.773 22.08 100.117 21.9147 99.5301 21.584C98.9435 21.2427 98.4741 20.7573 98.1221 20.128C97.7808 19.488 97.6101 18.7093 97.6101 17.792C97.6101 16.8747 97.7808 16.1013 98.1221 15.472C98.4635 14.832 98.9275 14.3467 99.5141 14.016C100.101 13.6853 100.762 13.52 101.498 13.52C102.298 13.52 103.013 13.7013 103.642 14.064C104.282 14.416 104.783 14.9173 105.146 15.568C105.509 16.208 105.69 16.9493 105.69 17.792C105.69 18.6453 105.509 19.392 105.146 20.032C104.783 20.672 104.282 21.1733 103.642 21.536C103.013 21.8987 102.298 22.08 101.498 22.08ZM97.1621 25.104V13.6H98.2501V16.128L98.1381 17.808L98.2981 19.504V25.104H97.1621ZM101.418 21.072C102.015 21.072 102.549 20.9387 103.018 20.672C103.487 20.3947 103.861 20.0107 104.138 19.52C104.415 19.0187 104.554 18.4427 104.554 17.792C104.554 17.1413 104.415 16.5707 104.138 16.08C103.861 15.5893 103.487 15.2053 103.018 14.928C102.549 14.6507 102.015 14.512 101.418 14.512C100.821 14.512 100.282 14.6507 99.8021 14.928C99.3328 15.2053 98.9595 15.5893 98.6821 16.08C98.4155 16.5707 98.2821 17.1413 98.2821 17.792C98.2821 18.4427 98.4155 19.0187 98.6821 19.52C98.9595 20.0107 99.3328 20.3947 99.8021 20.672C100.282 20.9387 100.821 21.072 101.418 21.072ZM108.006 22V10.128H109.142V22H108.006ZM115.871 22.08C114.996 22.08 114.228 21.8987 113.567 21.536C112.905 21.1627 112.388 20.656 112.015 20.016C111.641 19.3653 111.455 18.624 111.455 17.792C111.455 16.96 111.631 16.224 111.983 15.584C112.345 14.944 112.836 14.4427 113.455 14.08C114.084 13.7067 114.788 13.52 115.567 13.52C116.356 13.52 117.055 13.7013 117.663 14.064C118.281 14.416 118.767 14.9173 119.119 15.568C119.471 16.208 119.647 16.9493 119.647 17.792C119.647 17.8453 119.641 17.904 119.631 17.968C119.631 18.0213 119.631 18.08 119.631 18.144H112.319V17.296H119.023L118.575 17.632C118.575 17.024 118.441 16.4853 118.175 16.016C117.919 15.536 117.567 15.1627 117.119 14.896C116.671 14.6293 116.153 14.496 115.567 14.496C114.991 14.496 114.473 14.6293 114.015 14.896C113.556 15.1627 113.199 15.536 112.943 16.016C112.687 16.496 112.559 17.0453 112.559 17.664V17.84C112.559 18.48 112.697 19.0453 112.975 19.536C113.263 20.016 113.657 20.3947 114.159 20.672C114.671 20.9387 115.252 21.072 115.903 21.072C116.415 21.072 116.889 20.9813 117.327 20.8C117.775 20.6187 118.159 20.3413 118.479 19.968L119.119 20.704C118.745 21.152 118.276 21.4933 117.711 21.728C117.156 21.9627 116.543 22.08 115.871 22.08Z" fill="black"/>
</g>
<defs>
<filter id="filter0_d_1353_7" x="0" y="0" width="136" height="43" filterUnits="userSpaceOnUse" color-interpolation-filters="sRGB">
<feFlood flood-opacity="0" result="BackgroundImageFix"/>
<feColorMatrix in="SourceAlpha" type="matrix" values="0 0 0 0 0 0 0 0 0 0 0 0 0 0 0 0 0 0 127 0" result="hardAlpha"/>
<feOffset dx="2" dy="7"/>
<feGaussianBlur stdDeviation="2"/>
<feComposite in2="hardAlpha" operator="out"/>
<feColorMatrix type="matrix" values="0 0 0 0 0 0 0 0 0 0 0 0 0 0 0 0 0 0 0.25 0"/>
<feBlend mode="normal" in2="BackgroundImageFix" result="effect1_dropShadow_1353_7"/>
<feBlend mode="normal" in="SourceGraphic" in2="effect1_dropShadow_1353_7" result="shape"/>
</filter>
<linearGradient id="paint0_linear_1353_7" x1="2" y1="0" x2="131.699" y2="10.0272" gradientUnits="userSpaceOnUse">
<stop offset="0.5" stop-color="#0CF637"/>
<stop offset="1" stop-color="#950DFF"/>
</linearGradient>
</defs>
</svg>
