<svg width="15" height="16" viewBox="0 0 15 16" fill="none" xmlns="http://www.w3.org/2000/svg">
<path d="M7.5 8.2963C8.49456 8.2963 9.44839 7.92169 10.1517 7.2549C10.8549 6.5881 11.25 5.68373 11.25 4.74074C11.25 3.79775 10.8549 2.89338 10.1517 2.22658C9.44839 1.55979 8.49456 1.18519 7.5 1.18519C6.50544 1.18519 5.55161 1.55979 4.84835 2.22658C4.14509 2.89338 3.75 3.79775 3.75 4.74074C3.75 5.68373 4.14509 6.5881 4.84835 7.2549C5.55161 7.92169 6.50544 8.2963 7.5 8.2963ZM7.5 9.48148C6.17392 9.48148 4.90215 8.98201 3.96447 8.09295C3.02678 7.20389 2.5 5.99806 2.5 4.74074C2.5 3.48342 3.02678 2.27759 3.96447 1.38853C4.90215 0.49947 6.17392 0 7.5 0C8.82608 0 10.0979 0.49947 11.0355 1.38853C11.9732 2.27759 12.5 3.48342 12.5 4.74074C12.5 5.99806 11.9732 7.20389 11.0355 8.09295C10.0979 8.98201 8.82608 9.48148 7.5 9.48148ZM13.75 15.4074V13.6296C13.75 13.1581 13.5525 12.7059 13.2008 12.3726C12.8492 12.0392 12.3723 11.8519 11.875 11.8519H3.125C2.62772 11.8519 2.15081 12.0392 1.79917 12.3726C1.44754 12.7059 1.25 13.1581 1.25 13.6296V15.4074C1.25 15.5646 1.18415 15.7153 1.06694 15.8264C0.949731 15.9376 0.79076 16 0.625 16C0.45924 16 0.300269 15.9376 0.183058 15.8264C0.0658481 15.7153 0 15.5646 0 15.4074V13.6296C0 12.8438 0.32924 12.0902 0.915291 11.5345C1.50134 10.9788 2.2962 10.6667 3.125 10.6667H11.875C12.7038 10.6667 13.4987 10.9788 14.0847 11.5345C14.6708 12.0902 15 12.8438 15 13.6296V15.4074C15 15.5646 14.9342 15.7153 14.8169 15.8264C14.6997 15.9376 14.5408 16 14.375 16C14.2092 16 14.0503 15.9376 13.9331 15.8264C13.8158 15.7153 13.75 15.5646 13.75 15.4074Z" fill="black"/>
</svg>
