<svg width="19" height="16" viewBox="0 0 19 16" fill="none" xmlns="http://www.w3.org/2000/svg">
<path d="M18.5 16H17.2143V13.1429C17.2133 12.3854 16.8743 11.6592 16.2717 11.1236C15.6691 10.5879 14.8522 10.2866 14 10.2857V9.14286C15.193 9.14437 16.3366 9.56628 17.1801 10.3161C18.0236 11.0659 18.4983 12.0825 18.5 13.1429V16ZM13.3571 16H12.0714V13.1429C12.0704 12.3854 11.7314 11.6592 11.1289 11.1236C10.5263 10.5879 9.70931 10.2866 8.85714 10.2857H5C4.14783 10.2866 3.33086 10.5879 2.72828 11.1236C2.12571 11.6592 1.78674 12.3854 1.78571 13.1429V16H0.5V13.1429C0.501701 12.0825 0.976353 11.0659 1.8199 10.3161C2.66344 9.56628 3.80705 9.14437 5 9.14286H8.85714C10.0501 9.14437 11.1937 9.56628 12.0372 10.3161C12.8808 11.0659 13.3554 12.0825 13.3571 13.1429V16ZM12.0714 0V1.14286C12.9239 1.14286 13.7415 1.44388 14.3443 1.97969C14.9471 2.51551 15.2857 3.24224 15.2857 4C15.2857 4.75776 14.9471 5.48449 14.3443 6.02031C13.7415 6.55612 12.9239 6.85714 12.0714 6.85714V8C13.2649 8 14.4095 7.57857 15.2534 6.82843C16.0973 6.07828 16.5714 5.06087 16.5714 4C16.5714 2.93913 16.0973 1.92172 15.2534 1.17157C14.4095 0.421427 13.2649 0 12.0714 0ZM6.92857 1.14286C7.5643 1.14286 8.18575 1.31043 8.71433 1.62437C9.24292 1.93832 9.6549 2.38454 9.89818 2.90662C10.1415 3.42869 10.2051 4.00317 10.0811 4.5574C9.95707 5.11163 9.65094 5.62073 9.20141 6.02031C8.75189 6.41988 8.17916 6.692 7.55565 6.80224C6.93214 6.91249 6.28585 6.85591 5.69852 6.63966C5.11118 6.42341 4.60918 6.0572 4.25599 5.58734C3.9028 5.11749 3.71429 4.56509 3.71429 4C3.71429 3.24224 4.05293 2.51551 4.65573 1.97969C5.25852 1.44388 6.07609 1.14286 6.92857 1.14286ZM6.92857 0C6.03856 0 5.16853 0.234596 4.42851 0.674122C3.68848 1.11365 3.11171 1.73836 2.77111 2.46927C2.43052 3.20017 2.3414 4.00444 2.51504 4.78036C2.68867 5.55629 3.11725 6.26902 3.74659 6.82843C4.37593 7.38784 5.17775 7.7688 6.05066 7.92314C6.92358 8.07748 7.82838 7.99827 8.65065 7.69552C9.47291 7.39277 10.1757 6.88008 10.6702 6.22228C11.1647 5.56448 11.4286 4.79113 11.4286 4C11.4286 2.93913 10.9545 1.92172 10.1106 1.17157C9.26664 0.421427 8.12205 0 6.92857 0Z" fill="black"/>
</svg>
