<svg width="23" height="16" viewBox="0 0 23 16" fill="none" xmlns="http://www.w3.org/2000/svg">
<g clip-path="url(#clip0_1353_18)">
<path d="M10.5526 7.31055C9.16786 7.31055 7.96131 8.1664 7.33025 9.4318C6.7352 8.80213 5.93288 8.41609 5.05021 8.41609H3.32339C1.48852 8.41609 0.000976562 10.0843 0.000976562 12.1415V15.997H0.681254V12.1415C0.681254 10.4937 1.85366 9.17883 3.32339 9.17883H5.05021C5.84705 9.17883 6.55653 9.56533 7.0392 10.1818C6.92501 10.5807 6.86311 11.0059 6.86311 11.4473V15.997H7.61862V11.4473C7.61862 9.6175 8.92061 8.15771 10.5526 8.15771H12.4699C14.1019 8.15771 15.4042 9.6175 15.4042 11.4473V15.997H16.1594V11.4473C16.1594 10.9978 16.0952 10.5652 15.977 10.16C16.4592 9.55623 17.1615 9.17883 17.9489 9.17883H19.6754C21.1451 9.17883 22.3178 10.4937 22.3178 12.1415V15.997H22.9981V12.1415C22.9981 10.0843 21.5102 8.41609 19.6754 8.41609H17.9489C17.0738 8.41609 16.2776 8.79548 15.6842 9.41552C15.0509 8.15908 13.8487 7.31055 12.4699 7.31055H10.5526Z" fill="black"/>
<path d="M11.4999 0.00390625C9.90001 0.00390625 8.5957 1.4666 8.5957 3.26039C8.5957 5.05418 9.90001 6.51693 11.4999 6.51693C13.0999 6.51693 14.4044 5.05418 14.4044 3.26039C14.4044 1.4666 13.0999 0.00390625 11.4999 0.00390625ZM11.4999 0.78489C12.7235 0.78489 13.7082 1.88852 13.7082 3.26039C13.7082 4.63226 12.7235 5.73593 11.4999 5.73593C10.2763 5.73593 9.292 4.63226 9.292 3.26039C9.292 1.88852 10.2763 0.78489 11.4999 0.78489Z" fill="black"/>
<path d="M18.8006 2.11621C17.4213 2.11621 16.2969 3.37692 16.2969 4.92335C16.2969 6.46977 17.4213 7.7308 18.8006 7.7308C20.1799 7.7308 21.3043 6.46977 21.3043 4.92335C21.3043 3.37692 20.1799 2.11621 18.8006 2.11621ZM18.8006 2.78921C19.8554 2.78921 20.704 3.74068 20.704 4.92335C20.704 6.10601 19.8554 7.05778 18.8006 7.05778C17.7458 7.05778 16.8971 6.10601 16.8971 4.92335C16.8971 3.74068 17.7458 2.78921 18.8006 2.78921Z" fill="black"/>
<path d="M4.17541 2.11621C2.79616 2.11621 1.67139 3.37692 1.67139 4.92335C1.67139 6.46977 2.79616 7.7308 4.17541 7.7308C5.55468 7.7308 6.67912 6.46977 6.67912 4.92335C6.67912 3.37692 5.55468 2.11621 4.17541 2.11621ZM4.17541 2.78921C5.23025 2.78921 6.07885 3.74068 6.07885 4.92335C6.07885 6.10601 5.23025 7.05778 4.17541 7.05778C3.1206 7.05778 2.27198 6.10601 2.27198 4.92335C2.27198 3.74068 3.1206 2.78921 4.17541 2.78921Z" fill="black"/>
</g>
<defs>
<clipPath id="clip0_1353_18">
<rect width="23" height="16" fill="white"/>
</clipPath>
</defs>
</svg>
